<?xml version="1.0" encoding="utf-8"?>
<!-- Generator: Adobe Illustrator 27.9.0, SVG Export Plug-In . SVG Version: 6.00 Build 0)  -->
<svg version="1.1" id="Ebene_1" xmlns="http://www.w3.org/2000/svg" xmlns:xlink="http://www.w3.org/1999/xlink" x="0px" y="0px"
	 viewBox="0 0 975.6 232.6" style="enable-background:new 0 0 975.6 232.6;" xml:space="preserve">
<style type="text/css">
	.st0{fill:#4A4A49;}
	.st1{fill:#FFFFFF;}
	.st2{fill:#030405;stroke:#FFFFFF;stroke-miterlimit:10;}
	.st3{fill:#DEDC03;}
	.st4{fill:#010202;}
	.st5{fill:#282727;}
	.st6{fill:#FDFDFE;}
	.st7{fill:url(#SVGID_1_);}
	.st8{fill:url(#SVGID_00000044856843662142068070000002574808178878934189_);}
	.st9{fill:url(#SVGID_00000086689665145331283070000004703220470986137518_);}
	.st10{fill:#AAA618;}
	.st11{fill:#F8F6F7;}
	.st12{opacity:0.3;}
	.st13{filter:url(#Adobe_OpacityMaskFilter);}
	.st14{filter:url(#Adobe_OpacityMaskFilter_00000101075898383941409010000006893362579362487448_);}
	
		.st15{mask:url(#SVGID_00000047760003703813643140000000159548845301429148_);fill:url(#SVGID_00000125560766227392980250000010223428335987473792_);}
	.st16{fill:url(#SVGID_00000109741477991216936590000015002958195974634415_);}
	.st17{filter:url(#Adobe_OpacityMaskFilter_00000008869520902901955570000013067513479637531575_);}
	.st18{filter:url(#Adobe_OpacityMaskFilter_00000103953329121470506570000002999359110799740567_);}
	
		.st19{mask:url(#SVGID_00000013873108734040168360000018286847353784991412_);fill:url(#SVGID_00000029752886801232755580000007304878241819260861_);}
	.st20{opacity:0.5;fill:#010202;}
	.st21{fill:url(#SVGID_00000042016333395667682830000014431563378996778893_);}
	.st22{fill:#DEDC07;}
	.st23{fill:url(#SVGID_00000155856159195826431990000002597154047137230477_);}
	.st24{filter:url(#Adobe_OpacityMaskFilter_00000116951537985504641290000014793824417875940012_);}
	.st25{filter:url(#Adobe_OpacityMaskFilter_00000032620841373720845570000007924529175671470987_);}
	
		.st26{mask:url(#SVGID_00000124124329508841887970000003195499341130228141_);fill:url(#SVGID_00000019657636484326852530000007974163968274062780_);}
	.st27{opacity:0.7;fill:#010202;}
	.st28{fill:url(#SVGID_00000060752946058022602310000006254158946253268377_);}
	.st29{fill:url(#SVGID_00000109015521259624858490000000285702429909299347_);}
	.st30{fill:url(#SVGID_00000060018491078296179220000003610073426355563696_);}
	.st31{fill:#1A1A19;}
	.st32{fill:url(#SVGID_00000039849079937075038870000018375214365300943021_);}
	.st33{opacity:0.5;}
	.st34{fill:#58575A;}
	.st35{fill:url(#SVGID_00000026877608161321942200000007010476316586923917_);}
	.st36{fill:url(#SVGID_00000006702831247062975900000004531315820443806128_);}
	.st37{fill:#A8A519;}
	.st38{filter:url(#Adobe_OpacityMaskFilter_00000173864574104528920600000008298853609184260798_);}
	.st39{filter:url(#Adobe_OpacityMaskFilter_00000146481186674377885630000009611938857141374377_);}
	
		.st40{mask:url(#SVGID_00000067203911548752784730000009715471484175606150_);fill:url(#SVGID_00000157305242820970288460000010775511669479312788_);}
	.st41{opacity:0.72;fill:url(#SVGID_00000101062074015706892800000006400709100940861065_);}
	.st42{fill:url(#SVGID_00000070109970149159937710000010720566822417277063_);}
	.st43{fill:url(#SVGID_00000059309129388716534870000001150016995607412155_);}
	.st44{fill:url(#SVGID_00000168099070754763906320000001875122980278347925_);}
	.st45{filter:url(#Adobe_OpacityMaskFilter_00000044146381114382032730000005319339712779693719_);}
	.st46{filter:url(#Adobe_OpacityMaskFilter_00000043444827782739747540000009967505331092672648_);}
	
		.st47{mask:url(#SVGID_00000132787572429647989370000010713487351935094918_);fill:url(#SVGID_00000078748155956306964670000003231555035579084187_);}
	.st48{fill:#F4F3F4;}
	.st49{fill:url(#SVGID_00000085235186976715810840000012920018573326896034_);}
	.st50{fill:#D5D3D3;}
	.st51{fill:url(#SVGID_00000007426093580224082320000015518031087160284055_);}
	.st52{fill:#E5E5E4;}
	.st53{fill:#EFEFEF;}
</style>
<g>
	<path class="st3" d="M303.2,43.5c-10.8,0-21.5,2.8-31.4,6.3v81.7h6V54.7c5.8-2.5,16-5,25.5-5c11.8,0,24.3,6.3,24.3,20.1v61.7h6
		V69.8C333.5,52.5,318.4,43.9,303.2,43.5z"/>
	<path class="st3" d="M414.4,118.4l-5.5-2.8c-4.3,7.5-13.5,10.8-22.6,10.8c-12.8,0-25.1-6.2-25-20.1V92.6h55.9V71
		c0-17.6-15.6-26.3-30.9-26.3c-15.5,0-31.1,8.7-31.1,26.3v35.3c0,17.6,15.6,26.3,31.1,26.3C397.8,132.6,409.2,128.1,414.4,118.4z
		 M361.3,70.7c-0.2-13.6,12.1-20.1,25-20.1c12.5,0,25,6.5,25,20.1V71v16.1h-49.9V70.7z"/>
	<path class="st3" d="M467.6,133.1c10.8,0,21.5-2.8,31.4-6.3V45.4h-6v76.5c-5.8,2.5-16,5-25.5,5c-11.8,0-24.3-6.3-24.3-20.1V45.4h-6
		v61.4C437.4,124.1,452.5,132.7,467.6,133.1z"/>
	<path class="st3" d="M546.3,134.9l2.9,0.1v-11.8h-2.8c-6.1,0-14.1-1.7-14.1-16.8V10.9h-11.7v95.5
		C520.5,124.2,529.7,134.3,546.3,134.9z"/>
	<path class="st3" d="M588.8,41.4c-11.7,0-21.2,3.7-28.2,11l-2.1,2.2l2.3,2c0.5,0.4,1,1,1.5,1.7c0.6,0.7,1.2,1.4,2,2.2l1.9,1.9
		l2-1.8c5.8-5.3,11.8-7.7,19.5-7.7c10.9,0,22.6,4.4,22.6,16.8v9.1c-6.5-2.3-13.9-3.5-21.3-3.5c-21,0-34.6,11.7-34.8,29.8
		c0,17.8,13.2,30.8,31.3,31c0.6,0,1.2,0,1.8,0c11.7,0,22.7-1.7,32.8-5l2-0.6V69.5C622.1,50.2,604.8,41.4,588.8,41.4z M610.4,122.3
		c-7.2,1.7-14.9,2.6-22.4,2.6c-0.6,0-1.2,0-1.8,0c-12.5-0.2-20.3-7.8-20.3-19.9c0.2-15.4,12.6-18.6,22.9-18.6c7.6,0,15.8,2,21.6,4.1
		V122.3z"/>
	<path class="st3" d="M696.6,134.4h11.7V69.8c0-19.5-17.1-28.8-33.1-29.1c-12.4,0-24.4,3.7-32.4,6.5l-1.9,0.7v86.6h11.7V56.6
		c5.7-2.1,14.4-4.1,22.6-4.1c10.7,0,21.4,5.3,21.4,17.3V134.4z"/>
	<path class="st3" d="M783.4,10.9v34.7c-7.2-2.7-14.8-4.1-22.2-4.1l-0.4,0c-16.7,0-33.6,10-33.6,29.1v35.9
		c0,19.5,17.3,28.8,33.4,29.1l0.1,0c10.5,0,21.4-1.8,32.5-5.3l2-0.6V10.9H783.4z M783.4,121c-7,2.2-14.5,3.2-22.8,3.2
		c-7.1,0-13.4-2.3-17.2-6.2c-3-3-4.4-6.8-4.4-11.4l0-36.1c-0.2-12.5,11.7-17.1,22-17.3c7.4,0,15.1,1.6,22.4,4.5V121z"/>
</g>
<path class="st3" d="M251.7,0L109.6,64L79.4,38.6l0.4,38.9L0,113.4l80.2,3.4l0.6,64.3l42-30.1l31.4,67.8L251.7,0z M102.4,67.3
	l-15.6,7L86.7,54L102.4,67.3z M230.9,17.1l-85.1,95.3l-115.6-4.9L230.9,17.1z M87.7,167.4l-0.5-50.3l61.6,2.6l6.7-7.5l0.2,0.2l4,3.4
	l-24.5,17.6l-15.5,11.1l0,0L87.7,167.4z M128.7,146.8l42.7-30.5l-11.1-9.3l65.6-73.5l6.3-7l-78.1,175.2L128.7,146.8z"/>
<g>
	<path d="M274.1,194.2l24.7-24.9h2.9l-19.9,20.5l19.9,22.1h-2.9L280,191.6l-6,6V212h-2.3v-42.6h2.3V194.2z"/>
	<path d="M310.2,212h-2.3v-42.6h2.3V212z"/>
	<path d="M334.2,182.8c2.6-1.9,6.3-2.5,9.7-2.5c3.7,0,7.2,0.8,10,4.3c2.8-3.7,5.7-4.2,9-4.3c6-0.2,11.1,3.2,11.1,9.8v22h-2.2v-21.8
		c0.6-10-16.8-10-16.8-1.3V212h-2.1v-23.2c0-6.7-11.6-7.8-16.4-4.6V212h-2.2V182.8z"/>
	<path d="M384,171.7c1,0,1.9,0.8,1.9,1.9c0,1.1-0.9,1.9-1.9,1.9c-1,0-1.9-0.8-1.9-1.9C382,172.6,382.9,171.7,384,171.7z
		 M385.2,180.8V212H383v-31.2H385.2z"/>
	<path d="M404.7,212.5c-5.7,0.4-10.4-2.6-10.4-9.5v-29.2h2l0.2,7h6.7v2h-6.7V203c0,5.7,4.3,7.7,8.2,7.5V212.5z"/>
	<path d="M424,205.7c2.5,3.4,5.8,4.9,9.5,4.8c3.4-0.1,7.7-2.2,7.6-6.7c0-4.6-4.3-6.1-7.8-6.8c-4.8-0.8-10.3-2.6-10.3-8.5
		c0-9.4,13.6-10.6,18.6-5.1l-1.3,1.6c-4.2-4.6-14.9-3.9-15.2,3.6c0.1,4.9,5.2,5.8,8.5,6.4c4.6,0.8,9.4,3.1,9.4,8.9
		c0,5.5-4.8,8.7-9.7,8.7c-4.5,0-8.7-1.9-11.3-5.7L424,205.7z"/>
	<path d="M449.6,189.8c0-6.4,5.7-9.5,11.3-9.6c5.6,0.1,11.2,3.2,11.2,9.6V203c0,6.4-5.6,9.5-11.2,9.6c-5.6-0.1-11.3-3.2-11.3-9.6
		V189.8z M451.7,189.8V203c0,5.2,4.7,7.4,9.1,7.4c4.3,0,9-2.2,9-7.4v-13.2c0-5.2-4.7-7.3-9-7.3C456.4,182.5,451.7,184.6,451.7,189.8
		z"/>
	<path d="M478.7,180.8h20.8l0.9,1.4l-19.9,27.6h19.6v2.1h-21.4l-1.1-1.7l19.9-27.4h-18.7V180.8z"/>
	<path d="M508.3,171.7c1,0,1.9,0.8,1.9,1.9c0,1.1-0.9,1.9-1.9,1.9s-1.9-0.8-1.9-1.9C506.4,172.6,507.3,171.7,508.3,171.7z
		 M509.6,180.8V212h-2.2v-31.2H509.6z"/>
	<path d="M537,189.4c0-5.1-4.6-7.1-9.2-7.1c-3.1,0-5.5,1-7.8,3.1l-1.3-1.4c2.5-2.6,5.9-3.7,9.4-3.7c5.6,0,11,3,11,9.1v21.5
		c-3.9,1.3-8,1.8-12.2,1.7c-5.7-0.1-10.3-3.4-10.3-9.6c0.1-6.9,5.5-9.5,11.5-9.5c2.7,0,6,0.5,8.8,1.7V189.4z M537,197.2
		c-2.4-1-5.8-1.8-8.8-1.8c-4.8,0-9.3,1.8-9.3,7.6c0,5.3,3.6,7.6,8.4,7.6c3.4,0.1,6.1-0.2,9.8-1.2V197.2z"/>
	<path d="M556.3,212.6c-5.4-0.2-8.3-3.2-8.3-9.3v-33.9h2.2v33.9c0,4.5,1.9,7.1,6.1,7.1V212.6z"/>
	<path d="M562.8,203.1c0,5.1,4.4,7.3,9,7.3c3.3,0,6.6-1.2,8.2-3.9l2,1c-1.9,3.5-6,5.1-10.2,5.1c-5.6,0-11.3-3.1-11.3-9.5v-13.4
		c0-6.4,5.7-9.5,11.3-9.5c5.5,0,11.2,3.1,11.2,9.5v8.2h-20.2V203.1z M580.9,189.6c0-4.9-4.5-7.3-9-7.3c-4.6,0-9.1,2.3-9,7.3v6.3
		h18.1V189.6z"/>
	<path d="M602.9,180.3v2.1c-1.3-0.1-2.5-0.1-3.9,0.1c-3.4,0.7-6.3,3.1-6.3,7.2V212h-2.2v-22.3c0-5.1,3.7-8.5,8.2-9.3
		C600.4,180.1,601.5,180.2,602.9,180.3z"/>
	<path d="M615.9,169.4h2.6l14.9,41.3l14.7-41.3h2.5l-15.5,43.1h-3.6L615.9,169.4z"/>
	<path d="M654.7,203.1c0,5.1,4.4,7.3,9,7.3c3.3,0,6.6-1.2,8.2-3.9l2,1c-1.9,3.5-6,5.1-10.2,5.1c-5.6,0-11.3-3.1-11.3-9.5v-13.4
		c0-6.4,5.7-9.5,11.3-9.5c5.5,0,11.2,3.1,11.2,9.5v8.2h-20.2V203.1z M672.8,189.6c0-4.9-4.5-7.3-9-7.3c-4.6,0-9.1,2.3-9,7.3v6.3
		h18.1V189.6z"/>
	<path d="M694.8,180.3v2.1c-1.3-0.1-2.5-0.1-3.9,0.1c-3.4,0.7-6.3,3.1-6.3,7.2V212h-2.2v-22.3c0-5.1,3.7-8.5,8.2-9.3
		C692.3,180.1,693.4,180.2,694.8,180.3z"/>
	<path d="M718.2,189.4c0-5.1-4.6-7.1-9.2-7.1c-3.1,0-5.5,1-7.8,3.1l-1.3-1.4c2.5-2.6,5.9-3.7,9.4-3.7c5.6,0,11,3,11,9.1v21.5
		c-3.9,1.3-8,1.8-12.2,1.7c-5.7-0.1-10.3-3.4-10.3-9.6c0.1-6.9,5.5-9.5,11.5-9.5c2.7,0,6,0.5,8.8,1.7V189.4z M718.2,197.2
		c-2.4-1-5.8-1.8-8.8-1.8c-4.8,0-9.3,1.8-9.3,7.6c0,5.3,3.6,7.6,8.4,7.6c3.4,0.1,6.1-0.2,9.8-1.2V197.2z"/>
	<path d="M729.3,182.5c3.6-1.3,7.5-2.3,11.4-2.3c5.5,0.1,11,3.2,11,9.5V212h-2.2v-22.3c0-5-4.5-7.3-8.8-7.3c-3.4,0-7.1,0.9-9.2,1.8
		V212h-2.2V182.5z"/>
	<path d="M770.9,212.5c-5.7,0.4-10.4-2.6-10.4-9.5v-29.2h2l0.2,7h6.7v2h-6.7V203c0,5.7,4.3,7.7,8.2,7.5V212.5z"/>
	<path d="M782.6,212l-9.4-31.2h2.2l8.9,29.4l7.2-29.4h3.3l7.3,29.2l8.8-29.2h2.2l-9.4,31.2h-3.4l-7.2-29.7l-7.3,29.7H782.6z"/>
	<path d="M818.1,189.8c0-6.4,5.7-9.5,11.3-9.6c5.6,0.1,11.2,3.2,11.2,9.6V203c0,6.4-5.6,9.5-11.2,9.6c-5.6-0.1-11.3-3.2-11.3-9.6
		V189.8z M820.3,189.8V203c0,5.2,4.7,7.4,9.1,7.4c4.3,0,9-2.2,9-7.4v-13.2c0-5.2-4.7-7.3-9-7.3C825,182.5,820.3,184.6,820.3,189.8z"
		/>
	<path d="M861,180.3v2.1c-1.3-0.1-2.5-0.1-3.9,0.1c-3.4,0.7-6.3,3.1-6.3,7.2V212h-2.2v-22.3c0-5.1,3.7-8.5,8.2-9.3
		C858.5,180.1,859.6,180.2,861,180.3z"/>
	<path d="M876.9,212.5c-5.7,0.4-10.4-2.6-10.4-9.5v-29.2h2l0.2,7h6.7v2h-6.7V203c0,5.7,4.3,7.7,8.2,7.5V212.5z"/>
	<path d="M904.4,210.3c-3.6,1.3-7.5,2.3-11.4,2.3c-5.5-0.1-11-3.2-11-9.5v-22.3h2.2v22.3c0,5,4.5,7.3,8.8,7.3c3.4,0,7.1-0.9,9.2-1.8
		v-27.7h2.2V210.3z"/>
	<path d="M913.4,182.5c3.6-1.3,7.5-2.3,11.4-2.3c5.5,0.1,11,3.2,11,9.5V212h-2.2v-22.3c0-5-4.5-7.3-8.8-7.3c-3.4,0-7.1,0.9-9.2,1.8
		V212h-2.2V182.5z"/>
	<path d="M947,219.2c2.1,1.7,5.1,2.6,8.1,2.6c4.6,0.1,9-2.1,9-7.1v-4.3c-3.2,1.6-6.1,2.2-9,2.2c-5.6,0.1-11.1-3.2-11.1-9.4v-13.5
		c0-6.2,5.4-9.3,10.9-9.4c4.2,0,7.2,0.9,11.3,2.3v32.1c0,6.4-5.5,9.2-11,9.2c-3.6,0-7.2-1.1-9.4-3.3L947,219.2z M964,184.1
		c-2.1-0.9-5.8-1.7-9.2-1.7c-4.5,0-8.8,2.3-8.7,7.2v13.6c0,4.9,4.3,7.2,8.8,7.3c3.3-0.1,5.6-0.8,9.1-2.2V184.1z"/>
</g>
<g>
	<path class="st3" d="M941,134.4h-7.4l-15.8-43.6h-56.2l-15.2,43.6H839L884.9,8.9H895L941,134.4z M864.1,83.9h51.4l-25.7-69.8
		L864.1,83.9z"/>
	<path class="st3" d="M965.9,134.4h-6.9V8.9h6.9V134.4z"/>
</g>
</svg>
